<svg xmlns="http://www.w3.org/2000/svg" width="48" height="48" viewBox="0 0 48 48">
  <defs>
    <style>
      .cls-1 {
        fill-rule: evenodd;
      }
    </style>
  </defs>
  <path id="Фигура_1" data-name="Фигура 1" class="cls-1" d="M14.065,7.006L4.256,23.972l9.812,17.023H33.424c1.615-2.924,3.225-5.859,4.789-8.711,1.5-2.736,3.044-5.551,4.572-8.318l-1.1-2H26.714v4.006H37.091l-2.5,4.55L31.832,35.53l-0.8,1.459H16.746l-0.809-1.414L10.208,25.559,9.3,23.969l0.91-1.59,5.729-10.015,0.809-1.414H35.737L33.459,7.006H14.065m-1.52-3H34.98l4.592,7.95-0.918,2H18.274L12.545,23.969l5.729,10.015h11.2l2.755-5.007H23.959V18.962H43.245L46,23.969C42.365,30.533,38.72,37.245,34.98,44H12.545L1,23.969Z"/>
</svg>
