<svg id="Layer_1" data-name="Layer 1" xmlns="http://www.w3.org/2000/svg" viewBox="0 0 118.53 42.6"><defs><style>.cls-1{fill:#fff;}</style></defs><path class="cls-1" d="M35.57,24.36V19.93H31.21V17.62h6.87V12.89H35.57V.62H18.26l-2.52,4.2H12V7.73H23V10H12.61L9.4,15.38H12v5H0v5H3.43l-.2.33v9.58H23.08v6.62H35.57V35.24h4.76V24.36Zm-12.49,0H15.29l7.79-13Z"/><path class="cls-1" d="M74.39,36.44c3.21-4,4.79-9.42,4.79-15.17,0-11.19-6-21.27-18.3-21.27a18.05,18.05,0,0,0-8.25,1.85V5.59h-4.8a22.07,22.07,0,0,0-5,12h3.78v2.31h-4c0,.44,0,.89,0,1.34a26,26,0,0,0,2.7,12H44.22v5H49a16.91,16.91,0,0,0,11.88,4.4,17.08,17.08,0,0,0,11.25-3.84H62.88V36.44ZM60.88,31.59c-3.65,0-5.46-2.83-5.71-8.74H53.69v-5H55.3c.54-4.66,2.33-6.86,5.58-6.86a4.55,4.55,0,0,1,3.94,1.88h2.91v5H64.56v5h2C66.33,28.75,64.52,31.59,60.88,31.59Z"/><path class="cls-1" d="M110.85,25.52V23.2h4.47V20.89h-1.55V.62H96.45L93,6.4h2.43v5H85.94v3.17H88.1L81.43,25.66v2.4H79.18v1.72h5v3.44H81.43v2h19.85v6.62h12.49V35.24h4.76V25.52Zm-9.57-1.16H93.49l7.79-13Z"/></svg>