<svg width="291" height="29" viewBox="0 0 291 29" fill="none" xmlns="http://www.w3.org/2000/svg">
<g opacity="0.3">
<rect y="6.70135" width="291" height="1.31674" rx="0.658371" fill="#131336"/>
<rect x="53" width="1" height="16" fill="#131336"/>
<rect x="79.0049" y="4.06787" width="1.31674" height="7.90045" fill="#131336"/>
<rect x="105" width="2" height="19" fill="#131336"/>
<rect x="131.674" y="4.06787" width="1.31674" height="7.90045" fill="#131336"/>
<rect x="158" width="1" height="22" fill="#131336"/>
<rect x="184.344" y="4.06787" width="1.31674" height="7.90045" fill="#131336"/>
<rect x="211" width="1" height="26" fill="#131336"/>
<rect x="237.014" y="4.06787" width="1.31674" height="7.90045" fill="#131336"/>
<rect x="263" width="1" height="29" fill="#131336"/>
<rect x="39.502" y="0.117615" width="1.31674" height="14.4842" fill="#131336"/>
<rect x="65.8369" y="0.117615" width="1.31674" height="14.4842" fill="#131336"/>
<rect x="92.1719" y="0.117615" width="1.31674" height="14.4842" fill="#131336"/>
<rect x="118.507" y="0.117615" width="1.31674" height="14.4842" fill="#131336"/>
<rect x="144.842" y="0.117615" width="1.31674" height="14.4842" fill="#131336"/>
<rect x="171.177" y="0.117615" width="1.31674" height="14.4842" fill="#131336"/>
<rect x="197.512" y="0.117615" width="1.31674" height="14.4842" fill="#131336"/>
<rect x="223.846" y="0.117615" width="1.31674" height="14.4842" fill="#131336"/>
<rect x="250.181" y="0.117615" width="1.31674" height="14.4842" fill="#131336"/>
</g>
</svg>
