<svg width="293" height="95" viewBox="0 0 293 95" fill="none" xmlns="http://www.w3.org/2000/svg">
<path fill-rule="evenodd" clip-rule="evenodd" d="M0.560059 10C0.560059 4.47716 5.03721 0 10.5601 0H282.718C288.241 0 292.718 4.47715 292.718 10V30.6048C292.484 30.595 292.25 30.59 292.014 30.59C282.917 30.59 275.542 37.9646 275.542 47.0616C275.542 56.1586 282.917 63.5331 292.014 63.5331C292.25 63.5331 292.484 63.5282 292.718 63.5183V84.1231C292.718 89.646 288.241 94.1231 282.718 94.1231H10.56C5.0372 94.1231 0.560059 89.646 0.560059 84.1231V63.5331H0.560167C9.65715 63.5331 17.0317 56.1586 17.0317 47.0616C17.0317 37.9646 9.65715 30.59 0.560167 30.59H0.560059V10Z" fill="#6377E1"/>
</svg>
