<svg width="156" height="46" viewBox="0 0 156 46" fill="none" xmlns="http://www.w3.org/2000/svg">
<g clip-path="url(#clip0)">
<path fill-rule="evenodd" clip-rule="evenodd" d="M50.438 22.7147L38.3744 43.516H14.1392L2.0216 22.6287L14.1392 1.74146H38.288L43.2668 10.2985H19.0964L11.9468 22.6287L19.0964 34.959H33.4064L37.9316 27.09H27.3368V17.974H47.6948L50.438 22.7147Z" stroke="#5BC014" stroke-width="3.24"/>
<path d="M74.8806 14.9229H79.712V22.9292C78.6077 23.7206 77.3377 24.328 75.9021 24.7513C74.4665 25.1746 73.0309 25.3863 71.5953 25.3863C69.5707 25.3863 67.7486 24.9629 66.1289 24.1163C64.5093 23.2513 63.2393 22.0549 62.3191 20.5273C61.3988 18.9997 60.9387 17.2696 60.9387 15.337C60.9387 13.4045 61.3988 11.6744 62.3191 10.1467C63.2393 8.6191 64.5185 7.43196 66.1565 6.58532C67.7946 5.72028 69.6443 5.28775 71.7057 5.28775C73.5094 5.28775 75.1291 5.59144 76.5647 6.19881C78.0003 6.80619 79.1967 7.68044 80.1537 8.82156L76.6751 11.9689C75.3684 10.5332 73.8039 9.81544 71.9818 9.81544C70.3253 9.81544 68.991 10.3216 67.9787 11.3339C66.9664 12.3278 66.4602 13.6621 66.4602 15.337C66.4602 16.4045 66.6903 17.3616 67.1504 18.2082C67.6106 19.0365 68.2547 19.6898 69.083 20.1684C69.9112 20.6285 70.8591 20.8586 71.9266 20.8586C72.9757 20.8586 73.9604 20.6469 74.8806 20.2236V14.9229ZM96.1257 14.9229H100.957V22.9292C99.8528 23.7206 98.5828 24.328 97.1472 24.7513C95.7116 25.1746 94.276 25.3863 92.8404 25.3863C90.8158 25.3863 88.9937 24.9629 87.374 24.1163C85.7544 23.2513 84.4844 22.0549 83.5642 20.5273C82.6439 18.9997 82.1838 17.2696 82.1838 15.337C82.1838 13.4045 82.6439 11.6744 83.5642 10.1467C84.4844 8.6191 85.7636 7.43196 87.4016 6.58532C89.0397 5.72028 90.8894 5.28775 92.9508 5.28775C94.7545 5.28775 96.3742 5.59144 97.8098 6.19881C99.2454 6.80619 100.442 7.68044 101.399 8.82156L97.9202 11.9689C96.6135 10.5332 95.049 9.81544 93.2269 9.81544C91.5704 9.81544 90.2361 10.3216 89.2238 11.3339C88.2115 12.3278 87.7053 13.6621 87.7053 15.337C87.7053 16.4045 87.9354 17.3616 88.3955 18.2082C88.8557 19.0365 89.4998 19.6898 90.3281 20.1684C91.1563 20.6285 92.1042 20.8586 93.1717 20.8586C94.2208 20.8586 95.2055 20.6469 96.1257 20.2236V14.9229ZM111.214 25.3863C109.65 25.3863 108.131 25.193 106.659 24.8065C105.187 24.42 103.99 23.9046 103.07 23.2605L104.864 19.2297C105.73 19.8003 106.733 20.2604 107.874 20.6101C109.015 20.9598 110.138 21.1347 111.242 21.1347C113.34 21.1347 114.389 20.6101 114.389 19.561C114.389 19.0089 114.085 18.6039 113.478 18.3463C112.889 18.0702 111.932 17.7849 110.607 17.4904C109.153 17.1775 107.938 16.8462 106.963 16.4965C105.987 16.1284 105.15 15.5487 104.45 14.7572C103.751 13.9658 103.401 12.8983 103.401 11.5547C103.401 10.3768 103.723 9.3185 104.368 8.37983C105.012 7.42276 105.969 6.66815 107.239 6.11599C108.527 5.56383 110.101 5.28775 111.96 5.28775C113.23 5.28775 114.481 5.435 115.714 5.72948C116.948 6.00556 118.033 6.41968 118.972 6.97183L117.288 11.0302C115.447 10.0363 113.662 9.53936 111.932 9.53936C110.846 9.53936 110.055 9.70501 109.558 10.0363C109.061 10.3492 108.812 10.7633 108.812 11.2787C108.812 11.794 109.107 12.1805 109.696 12.4382C110.285 12.6959 111.233 12.9627 112.539 13.2388C114.012 13.5517 115.227 13.8922 116.184 14.2603C117.159 14.61 117.997 15.1806 118.696 15.972C119.414 16.745 119.773 17.8033 119.773 19.1469C119.773 20.3064 119.451 21.3555 118.806 22.2942C118.162 23.2329 117.196 23.9875 115.908 24.558C114.619 25.1102 113.055 25.3863 111.214 25.3863ZM137.344 17.5456C137.344 17.5824 137.316 18.015 137.261 18.8432H126.384C126.605 19.6162 127.028 20.2144 127.654 20.6377C128.298 21.0426 129.098 21.2451 130.056 21.2451C130.773 21.2451 131.39 21.1439 131.905 20.9414C132.439 20.7389 132.973 20.4077 133.507 19.9475L136.267 22.8187C134.813 24.4384 132.687 25.2482 129.89 25.2482C128.141 25.2482 126.605 24.9169 125.279 24.2543C123.954 23.5918 122.924 22.6715 122.187 21.4936C121.47 20.3156 121.111 18.9812 121.111 17.4904C121.111 16.018 121.46 14.702 122.16 13.5425C122.878 12.3646 123.862 11.4443 125.114 10.7817C126.365 10.1191 127.773 9.78783 129.338 9.78783C130.829 9.78783 132.181 10.1007 133.396 10.7265C134.611 11.3339 135.568 12.2265 136.267 13.4045C136.985 14.564 137.344 15.9444 137.344 17.5456ZM129.365 13.5149C128.556 13.5149 127.875 13.745 127.322 14.2051C126.789 14.6652 126.448 15.291 126.301 16.0824H132.43C132.283 15.291 131.933 14.6652 131.381 14.2051C130.847 13.745 130.175 13.5149 129.365 13.5149ZM139.763 4.51473H145.008V24.9998H139.763V4.51473Z" fill="white"/>
</g>
<defs>
<clipPath id="clip0">
<rect y="-0.000244141" width="156" height="46" fill="white"/>
</clipPath>
</defs>
</svg>
