<svg width="156" height="46" viewBox="0 0 156 46" fill="none" xmlns="http://www.w3.org/2000/svg">
<path fill-rule="evenodd" clip-rule="evenodd" d="M50.438 22.715L38.3744 43.5162H14.1392L2.0216 22.629L14.1392 1.74174H38.288L43.2668 10.2987H19.0964L11.9468 22.629L19.0964 34.9592H33.4064L37.9316 27.0902H27.3368V17.9742H47.6948L50.438 22.715Z" stroke="#5BC014" stroke-width="3.24"/>
<path d="M74.8806 20.9231H79.712V28.9294C78.6077 29.7208 77.3377 30.3282 75.9021 30.7515C74.4665 31.1748 73.0309 31.3865 71.5953 31.3865C69.5707 31.3865 67.7486 30.9632 66.1289 30.1165C64.5093 29.2515 63.2393 28.0552 62.3191 26.5275C61.3988 24.9999 60.9387 23.2698 60.9387 21.3373C60.9387 19.4047 61.3988 17.6746 62.3191 16.147C63.2393 14.6193 64.5185 13.4322 66.1565 12.5856C67.7946 11.7205 69.6443 11.288 71.7057 11.288C73.5094 11.288 75.1291 11.5917 76.5647 12.1991C78.0003 12.8064 79.1967 13.6807 80.1537 14.8218L76.6751 17.9691C75.3684 16.5335 73.8039 15.8157 71.9818 15.8157C70.3253 15.8157 68.991 16.3218 67.9787 17.3341C66.9664 18.328 66.4602 19.6624 66.4602 21.3373C66.4602 22.4048 66.6903 23.3618 67.1504 24.2085C67.6106 25.0367 68.2547 25.6901 69.083 26.1686C69.9112 26.6288 70.8591 26.8588 71.9266 26.8588C72.9757 26.8588 73.9604 26.6472 74.8806 26.2238V20.9231ZM96.1257 20.9231H100.957V28.9294C99.8528 29.7208 98.5828 30.3282 97.1472 30.7515C95.7116 31.1748 94.276 31.3865 92.8404 31.3865C90.8158 31.3865 88.9937 30.9632 87.374 30.1165C85.7544 29.2515 84.4844 28.0552 83.5642 26.5275C82.6439 24.9999 82.1838 23.2698 82.1838 21.3373C82.1838 19.4047 82.6439 17.6746 83.5642 16.147C84.4844 14.6193 85.7636 13.4322 87.4016 12.5856C89.0397 11.7205 90.8894 11.288 92.9508 11.288C94.7545 11.288 96.3742 11.5917 97.8098 12.1991C99.2454 12.8064 100.442 13.6807 101.399 14.8218L97.9202 17.9691C96.6135 16.5335 95.049 15.8157 93.2269 15.8157C91.5704 15.8157 90.2361 16.3218 89.2238 17.3341C88.2115 18.328 87.7053 19.6624 87.7053 21.3373C87.7053 22.4048 87.9354 23.3618 88.3955 24.2085C88.8557 25.0367 89.4998 25.6901 90.3281 26.1686C91.1563 26.6288 92.1042 26.8588 93.1717 26.8588C94.2208 26.8588 95.2055 26.6472 96.1257 26.2238V20.9231Z" fill="#5BC014"/>
<path d="M111.214 31.3865C109.65 31.3865 108.131 31.1933 106.659 30.8067C105.187 30.4202 103.99 29.9049 103.07 29.2607L104.864 25.23C105.73 25.8005 106.733 26.2607 107.874 26.6104C109.015 26.9601 110.138 27.1349 111.242 27.1349C113.34 27.1349 114.389 26.6104 114.389 25.5613C114.389 25.0091 114.085 24.6042 113.478 24.3465C112.889 24.0704 111.932 23.7851 110.607 23.4907C109.153 23.1778 107.938 22.8465 106.963 22.4968C105.987 22.1287 105.15 21.5489 104.45 20.7575C103.751 19.9661 103.401 18.8986 103.401 17.555C103.401 16.377 103.723 15.3187 104.368 14.3801C105.012 13.423 105.969 12.6684 107.239 12.1162C108.527 11.5641 110.101 11.288 111.96 11.288C113.23 11.288 114.481 11.4352 115.714 11.7297C116.948 12.0058 118.033 12.4199 118.972 12.9721L117.288 17.0304C115.447 16.0365 113.662 15.5396 111.932 15.5396C110.846 15.5396 110.055 15.7053 109.558 16.0365C109.061 16.3494 108.812 16.7636 108.812 17.2789C108.812 17.7942 109.107 18.1808 109.696 18.4384C110.285 18.6961 111.233 18.963 112.539 19.2391C114.012 19.5519 115.227 19.8924 116.184 20.2605C117.159 20.6102 117.997 21.1808 118.696 21.9722C119.414 22.7453 119.773 23.8036 119.773 25.1471C119.773 26.3067 119.451 27.3558 118.806 28.2944C118.162 29.2331 117.196 29.9877 115.908 30.5583C114.619 31.1104 113.055 31.3865 111.214 31.3865ZM137.344 23.5459C137.344 23.5827 137.316 24.0152 137.261 24.8435H126.384C126.605 25.6165 127.028 26.2146 127.654 26.638C128.298 27.0429 129.098 27.2453 130.056 27.2453C130.773 27.2453 131.39 27.1441 131.905 26.9416C132.439 26.7392 132.973 26.4079 133.507 25.9478L136.267 28.819C134.813 30.4386 132.687 31.2485 129.89 31.2485C128.141 31.2485 126.605 30.9172 125.279 30.2546C123.954 29.592 122.924 28.6717 122.187 27.4938C121.47 26.3159 121.111 24.9815 121.111 23.4907C121.111 22.0182 121.46 20.7023 122.16 19.5427C122.878 18.3648 123.862 17.4445 125.114 16.782C126.365 16.1194 127.773 15.7881 129.338 15.7881C130.829 15.7881 132.181 16.101 133.396 16.7267C134.611 17.3341 135.568 18.2268 136.267 19.4047C136.985 20.5642 137.344 21.9446 137.344 23.5459ZM129.365 19.5151C128.556 19.5151 127.875 19.7452 127.322 20.2053C126.789 20.6655 126.448 21.2912 126.301 22.0827H132.43C132.283 21.2912 131.933 20.6655 131.381 20.2053C130.847 19.7452 130.175 19.5151 129.365 19.5151ZM139.763 10.515H145.008V31H139.763V10.515Z" fill="#F5F5FB"/>
</svg>
