<svg version="1.1" xmlns="http://www.w3.org/2000/svg" width="156" height="46" viewBox="-204.79999847412108 -1106.9440185546875 5798.565548706054 2270.7200408935546"><desc>Created with Snap</desc><defs></defs><g><g transform="matrix(3.2605,0,0,3.2605,3623.7246,-806.265)"><g><circle cx="332.2" cy="179.8" r="50.8" fill="#210070" style=""></circle><circle cx="433.8" cy="179.8" r="25.4" fill="#210070" style=""></circle><circle cx="497.3" cy="179.8" r="12.7" fill="#210070" style=""></circle><circle cx="332.2" cy="332.2" r="50.8" fill="#210070" style=""></circle><circle cx="433.8" cy="332.2" r="25.4" fill="#210070" style=""></circle><circle cx="497.3" cy="332.2" r="12.7" fill="#210070" style=""></circle><circle cx="179.8" cy="332.2" r="50.8" fill="#210070" style=""></circle><circle cx="78.2" cy="332.2" r="25.4" fill="#210070" style=""></circle><circle cx="14.7" cy="332.2" r="12.7" fill="#210070" style=""></circle><circle cx="179.8" cy="179.8" r="50.8" fill="#210070" style=""></circle><circle cx="78.2" cy="179.8" r="25.4" fill="#210070" style=""></circle><circle cx="14.7" cy="179.8" r="12.7" fill="#210070" style=""></circle><circle cx="332.2" cy="433.8" r="25.4" fill="#210070" style=""></circle><circle cx="332.2" cy="497.3" r="12.7" fill="#210070" style=""></circle><circle cx="179.8" cy="433.8" r="25.4" fill="#210070" style=""></circle><circle cx="179.8" cy="497.3" r="12.7" fill="#210070" style=""></circle><circle cx="179.8" cy="78.2" r="25.4" fill="#210070" style=""></circle><circle cx="78.2" cy="78.2" r="25.4" fill="#210070" style=""></circle><circle cx="179.8" cy="14.7" r="12.7" fill="#210070" style=""></circle><circle cx="332.2" cy="78.2" r="25.4" fill="#210070" style=""></circle><circle cx="433.8" cy="78.2" r="25.4" fill="#210070" style=""></circle><circle cx="78.2" cy="433.8" r="25.4" fill="#210070" style=""></circle><circle cx="433.8" cy="433.8" r="25.4" fill="#210070" style=""></circle><circle cx="332.2" cy="14.7" r="12.7" fill="#210070" style=""></circle></g><desc>Created with Snap</desc><defs></defs></g><g><g transform="matrix(1.024,0,0,-1.024,0,0)"><path d="M411 -16Q320 -16 249 19Q179 54 139 116Q100 178 100 258L100 742Q100 759 111 770Q122 781 139 781Q156 781 167 770Q178 759 178 742L178 258Q178 199 207 154Q237 109 290 83Q343 58 411 58Q478 58 530 83Q582 109 611 154Q641 199 641 258L641 742Q641 759 652 770Q663 781 680 781Q698 781 708 770Q719 759 719 742L719 258Q719 178 679 116Q640 54 570 19Q501 -16 411 -16ZM1378 0Q1361 0 1350 11Q1339 22 1339 38L1339 298Q1339 360 1315 400Q1292 440 1251 460Q1211 480 1160 480Q1111 480 1071 461Q1032 442 1009 409Q986 376 986 334L931 334Q933 397 965 446Q997 496 1050 524Q1103 553 1168 553Q1239 553 1295 523Q1351 494 1383 437Q1416 380 1416 298L1416 38Q1416 22 1405 11Q1394 0 1378 0ZM948 0Q930 0 919 10Q909 21 909 38L909 508Q909 526 919 536Q930 547 948 547Q965 547 975 536Q986 526 986 508L986 38Q986 21 975 10Q965 0 948 0ZM1835 -5Q1756 -5 1693 31Q1630 68 1593 131Q1557 194 1557 274Q1557 353 1592 416Q1628 479 1689 515Q1750 552 1827 552Q1894 552 1948 523Q2002 495 2035 448L2035 742Q2035 760 2046 770Q2057 781 2074 781Q2091 781 2102 770Q2113 760 2113 742L2113 270Q2111 192 2074 129Q2038 67 1975 31Q1913 -5 1835 -5ZM1835 65Q1893 65 1938 92Q1984 120 2010 167Q2037 214 2037 274Q2037 333 2010 380Q1984 428 1938 455Q1893 482 1835 482Q1778 482 1732 455Q1686 428 1659 380Q1632 333 1632 274Q1632 214 1659 167Q1686 120 1732 92Q1778 65 1835 65ZM2541 -5Q2460 -5 2397 30Q2335 66 2299 129Q2264 192 2264 273Q2264 355 2297 417Q2331 480 2390 516Q2449 552 2526 552Q2602 552 2658 517Q2715 483 2746 422Q2777 361 2777 283Q2777 267 2767 257Q2757 248 2741 248L2316 248L2316 312L2749 312L2706 281Q2707 339 2685 385Q2663 431 2622 457Q2582 483 2526 483Q2469 483 2426 456Q2383 429 2359 381Q2336 334 2336 273Q2336 212 2362 165Q2389 118 2435 91Q2481 64 2541 64Q2577 64 2613 76Q2650 89 2672 108Q2683 117 2697 117Q2711 118 2721 110Q2734 98 2734 84Q2735 70 2723 60Q2690 32 2639 13Q2588 -5 2541 -5ZM2983 337L2939 337Q2942 399 2971 448Q3001 497 3048 525Q3096 553 3154 553Q3200 553 3225 540Q3250 527 3244 502Q3240 487 3230 482Q3221 477 3207 478Q3194 479 3177 480Q3121 485 3077 468Q3034 452 3008 418Q2983 384 2983 337ZM2945 0Q2927 0 2917 10Q2907 20 2907 38L2907 509Q2907 527 2917 537Q2927 547 2945 547Q2963 547 2973 537Q2983 527 2983 509L2983 38Q2983 20 2973 10Q2963 0 2945 0Z" fill="#210070" style=""></path></g></g><g transform="matrix(0.75,0,0,0.75,1079.7173,850.432)"><g transform="matrix(1.024,0,0,-1.024,0,0)"><path d="M377 385L615 385L615 62L614 62L615 55Q528 -8 397 -8Q239 -8 142 85Q46 178 46 338Q46 493 143 589Q241 686 391 686Q508 686 587 641L587 535Q501 589 395 589Q287 589 220 520Q154 451 154 338Q154 222 219 155Q285 88 400 88Q460 88 514 110L514 296L377 296L377 385ZM1017 169L1017 226L941 226Q885 226 856 204Q828 182 828 148Q828 113 850 93Q872 73 914 73Q962 73 989 99Q1017 126 1017 169ZM762 386L762 481Q821 515 918 515Q1117 515 1117 322L1117 0L1020 0L1020 60Q981 -4 883 -4Q811 -4 767 37Q724 79 724 143Q724 216 779 256Q834 297 933 297L1017 297L1017 326Q1017 378 992 404Q967 431 909 431Q828 431 762 386ZM1249 507L1347 507L1347 426Q1390 514 1490 514Q1604 514 1636 416Q1657 463 1697 488Q1737 514 1787 514Q1865 514 1905 468Q1946 422 1946 341L1946 0L1848 0L1848 320Q1848 429 1760 429Q1716 429 1681 390Q1647 351 1647 275L1647 0L1549 0L1549 320Q1549 429 1460 429Q1417 429 1382 390Q1347 351 1347 275L1347 0L1249 0L1249 507ZM2149 290L2394 290L2394 308Q2392 365 2363 398Q2334 432 2280 432Q2230 432 2194 395Q2158 359 2149 290ZM2457 115L2457 27Q2401 -5 2309 -5Q2191 -5 2121 66Q2051 137 2051 252Q2051 374 2115 443Q2179 513 2278 513Q2375 513 2432 452Q2489 392 2489 278Q2489 247 2483 213L2150 213Q2160 147 2206 112Q2252 77 2322 77Q2403 77 2457 115ZM2893 490L2893 401Q2844 430 2767 430Q2732 430 2711 414Q2691 398 2691 372Q2691 365 2692 358Q2694 352 2698 345Q2702 339 2705 334Q2709 330 2717 325Q2725 320 2729 316Q2734 313 2744 308Q2755 303 2760 300Q2765 298 2777 292Q2790 287 2795 285Q2854 259 2887 226Q2921 194 2921 140Q2921 72 2873 33Q2825 -5 2743 -5Q2653 -5 2593 25L2593 118Q2663 75 2738 75Q2777 75 2798 91Q2820 107 2820 133Q2820 155 2803 172Q2786 190 2768 198Q2751 207 2709 225Q2590 274 2590 369Q2590 436 2640 474Q2690 512 2765 512Q2847 512 2893 490Z" fill="#210070" style=""></path></g></g></g></svg>