<svg width="160" height="95.00000000000001" xmlns="http://www.w3.org/2000/svg" version="1.1">
 <desc>Created with Snap</desc>

 <g>
  <title>Layer 1</title>
  <desc fill="#5bc014">Created with Snap</desc>

  <path id="svg_8" fill="#f5f5f5" d="m15.38064,69.30663q0.48175,0 0.83504,0.35329q0.3854,0.35329 0.3854,0.86716l0,10.4059q0,3.43652 -2.47301,5.39565q-2.11972,1.73432 -5.1066,1.73432q-3.019,0 -5.1066,-1.73432q-2.44089,-1.99125 -2.44089,-5.39565l0,-10.4059q0,-0.48175 0.35329,-0.83504q0.35329,-0.3854 0.83504,-0.3854q0.48175,0 0.83504,0.35329q0.3854,0.35329 0.3854,0.86716l0,10.47014q0,2.34454 1.60585,3.66134q1.47738,1.22045 3.53287,1.22045q2.0876,0 3.56498,-1.22045q1.60585,-1.34891 1.60585,-3.66134l0,-10.47014q0,-0.48175 0.35329,-0.83504q0.35329,-0.3854 0.83504,-0.3854zm12.39715,7.03362q-2.31242,0 -4.33579,2.53724l0,7.86866q0,0.48175 -0.35329,0.83504q-0.35329,0.35329 -0.83504,0.35329q-0.48175,0 -0.83504,-0.35329q-0.35329,-0.35329 -0.35329,-0.83504l0,-11.27306q0,-0.51387 0.32117,-0.86716q0.35329,-0.35329 0.86716,-0.35329q0.48175,0 0.83504,0.35329q0.35329,0.32117 0.35329,0.86716l0,1.09198q1.05986,-1.09198 1.83067,-1.57373q1.47738,-0.86716 2.82629,-0.86716q1.38103,0 2.24819,0.41752q0.86716,0.3854 1.47738,1.12409q1.22045,1.44526 1.22045,3.5971l0,7.48326q0,0.48175 -0.35329,0.83504q-0.35329,0.35329 -0.83504,0.35329q-0.48175,0 -0.83504,-0.35329q-0.35329,-0.35329 -0.35329,-0.83504l0,-7.22632q0,-1.47738 -0.67446,-2.31242q-0.67446,-0.86716 -2.21607,-0.86716zm19.33442,10.4059l0,-0.67446q-1.95914,1.99125 -4.49638,1.99125q-2.50512,0 -4.36791,-1.76643q-1.99125,-1.99125 -2.02337,-5.20295q0,-3.14746 2.02337,-5.17083q1.83067,-1.83067 4.36791,-1.79855q2.53724,0 4.49638,1.99125l0,-6.45551q0,-0.51387 0.32117,-0.83504q0.35329,-0.35329 0.86716,-0.35329q0.51387,0 0.83504,0.35329q0.35329,0.32117 0.35329,0.83504l0,17.08623q0,0.48175 -0.35329,0.83504q-0.32117,0.35329 -0.83504,0.35329q-0.51387,0 -0.86716,-0.35329q-0.32117,-0.35329 -0.32117,-0.83504zm0,-2.89053l0,-5.52412q-1.79855,-1.99125 -4.17521,-1.95914q-3.019,0 -3.95039,2.66571q-0.32117,0.89928 -0.35329,2.05549q0,2.24819 1.22045,3.56498q1.12409,1.18833 3.08323,1.15621q2.37666,0 4.17521,-1.95914zm8.1256,-1.8949q0.22482,1.76643 1.34891,2.82629q1.15621,1.02774 3.14746,1.02774q2.02337,0 3.43652,-0.64234q0.44964,-0.22482 0.80292,-0.22482q0.35329,-0.03212 0.64234,0.25694q0.32117,0.28905 0.32117,0.64234q0,0.70657 -0.57811,0.99563q-0.54599,0.28905 -0.99563,0.51387q-0.44964,0.22482 -0.96351,0.3854q-1.18833,0.32117 -2.76206,0.32117q-3.24382,0 -5.04237,-1.79855q-1.76643,-1.83067 -1.76643,-5.17083q0,-2.89053 1.5095,-4.81755q1.7022,-2.15184 4.78543,-2.15184q2.95476,0 4.65696,1.99125q1.60585,1.86278 1.60585,4.65696q0,0.48175 -0.35329,0.83504q-0.32117,0.35329 -0.83504,0.35329l-8.96064,0zm3.88615,-5.81317q-2.34454,0 -3.4044,2.0876q-0.3854,0.73869 -0.48175,1.76643l7.77231,0q-0.09635,-1.86278 -1.38103,-2.95476q-1.02774,-0.89928 -2.50512,-0.89928zm11.85117,-0.67446l0,1.12409q1.86278,-2.47301 4.14309,-2.47301l0.12847,0q0.48175,0 0.80292,0.35329q0.35329,0.32117 0.35329,0.83504q0,0.51387 -0.35329,0.83504q-0.35329,0.28905 -0.86716,0.28905l-0.12847,0q-1.3168,0 -2.34454,0.64234q-1.02774,0.64234 -1.73432,1.67008l0,7.99713q0,0.48175 -0.35329,0.83504q-0.35329,0.35329 -0.83504,0.35329q-0.48175,0 -0.83504,-0.35329q-0.35329,-0.35329 -0.35329,-0.83504l0,-11.27306q0,-0.48175 0.32117,-0.83504q0.35329,-0.3854 0.86716,-0.3854q0.48175,0 0.83504,0.35329q0.35329,0.35329 0.35329,0.86716zm17.82492,0.64234l0,-0.64234q0,-0.48175 0.32117,-0.83504q0.35329,-0.3854 0.83504,-0.3854q0.48175,0 0.83504,0.35329q0.3854,0.35329 0.3854,0.86716l0,11.75482q0,3.34017 -1.60585,5.13872q-1.60585,1.76643 -4.56061,1.76643q-3.14746,0 -5.65259,-1.38103q-0.44964,-0.28905 -0.44964,-0.80292q0,-0.51387 0.28905,-0.83504q0.32117,-0.35329 0.64234,-0.35329q0.32117,0 0.57811,0.09635q1.99125,0.99563 4.33579,0.99563q4.04674,0 4.04674,-4.27156l0,-1.76643q-1.86278,1.99125 -4.49638,1.99125q-2.50512,0 -4.30368,-1.7022q-2.0876,-1.92702 -2.0876,-5.13872q0,-3.24382 2.0876,-5.17083q1.79855,-1.7022 4.36791,-1.67008q2.56936,0 4.43214,1.99125zm0,7.54749l0,-5.42777q-0.73869,-0.77081 -1.7022,-1.34891q-0.93139,-0.57811 -2.0876,-0.57811q-1.15621,0 -1.99125,0.28905q-0.80292,0.28905 -1.41315,0.86716q-1.28468,1.22045 -1.28468,3.50075q0,3.4044 2.69783,4.36791q0.83504,0.28905 1.99125,0.28905q1.92702,0 3.7898,-1.95914zm7.0015,-8.60735q2.21607,-0.96351 4.59273,-0.93139q2.66571,0 4.14309,1.63797q1.3168,1.41315 1.34891,3.53287l0,7.45114q0,0.48175 -0.3854,0.83504q-0.35329,0.35329 -0.86716,0.35329q-0.48175,0 -0.83504,-0.35329q-0.35329,-0.35329 -0.35329,-0.83504l0,-0.67446q-0.70657,0.73869 -1.8949,1.38103q-1.18833,0.61022 -3.019,0.61022q-1.83067,0 -3.05111,-1.05986q-1.25256,-1.09198 -1.25256,-2.85841q0,-1.95914 1.47738,-3.08323q1.60585,-1.22045 4.56061,-1.18833l3.17958,0l0,-0.22482q0,-1.76643 -0.86716,-2.50512q-0.83504,-0.73869 -2.63359,-0.73869q-1.5095,0 -3.50075,0.61022q-0.1927,0.06423 -0.48175,0.06423q-0.25694,0 -0.54599,-0.25694q-0.28905,-0.28905 -0.32117,-0.86716q0,-0.61022 0.70657,-0.89928zm0.83504,8.80005q0,2.11972 2.79418,2.0876q1.22045,0 2.28031,-0.57811q1.09198,-0.61022 1.73432,-1.34891l0,-2.21607l-2.82629,0q-1.86278,0 -2.92265,0.48175q-1.05986,0.44964 -1.05986,1.57373zm15.64097,-8.38253l0,1.09198q1.60585,-2.40877 4.46426,-2.44089q1.41315,0 2.60148,0.83504q0.96351,0.67446 1.44526,1.86278q0.73869,-1.15621 1.44526,-1.60585q1.47738,-1.09198 3.37228,-1.09198q2.11972,0 3.34017,1.63797q1.05986,1.38103 1.05986,3.4044l0,7.57961q0,0.48175 -0.35329,0.83504q-0.32117,0.35329 -0.83504,0.35329q-0.48175,0 -0.83504,-0.35329q-0.35329,-0.35329 -0.35329,-0.83504l0,-7.09785q0,-1.67008 -0.61022,-2.47301q-0.57811,-0.83504 -2.05549,-0.83504q-2.31242,0 -3.82192,2.53724l0,7.86866q0,0.48175 -0.35329,0.83504q-0.32117,0.35329 -0.83504,0.35329q-0.48175,0 -0.83504,-0.35329q-0.35329,-0.35329 -0.35329,-0.83504l0,-7.09785q0,-1.67008 -0.61022,-2.47301q-0.57811,-0.83504 -2.05549,-0.83504q-2.31242,0 -3.82192,2.53724l0,7.86866q0,0.48175 -0.35329,0.83504q-0.35329,0.35329 -0.83504,0.35329q-0.48175,0 -0.83504,-0.35329q-0.35329,-0.35329 -0.35329,-0.83504l0,-11.27306q0,-0.48175 0.32117,-0.83504q0.35329,-0.3854 0.86716,-0.3854q0.48175,0 0.83504,0.35329q0.35329,0.35329 0.35329,0.86716zm23.38116,6.48763q0.22482,1.76643 1.34891,2.82629q1.15621,1.02774 3.14746,1.02774q2.02337,0 3.43652,-0.64234q0.44964,-0.22482 0.80292,-0.22482q0.35329,-0.03212 0.64234,0.25694q0.32117,0.28905 0.32117,0.64234q0,0.70657 -0.57811,0.99563q-0.54599,0.28905 -0.99563,0.51387q-0.44964,0.22482 -0.96351,0.3854q-1.18833,0.32117 -2.76206,0.32117q-3.24382,0 -5.04237,-1.79855q-1.76643,-1.83067 -1.76643,-5.17083q0,-2.89053 1.5095,-4.81755q1.7022,-2.15184 4.78543,-2.15184q2.95476,0 4.65696,1.99125q1.60585,1.86278 1.60585,4.65696q0,0.48175 -0.35329,0.83504q-0.32117,0.35329 -0.83504,0.35329l-8.96064,0zm3.88615,-5.81317q-2.34454,0 -3.4044,2.0876q-0.3854,0.73869 -0.48175,1.76643l7.77231,0q-0.09635,-1.86278 -1.38103,-2.95476q-1.02774,-0.89928 -2.50512,-0.89928zm13.74607,9.69933q2.92265,0 2.89053,-1.83067q0,-0.57811 -0.57811,-0.89928q-0.57811,-0.32117 -1.44526,-0.54599q-0.86716,-0.22482 -1.8949,-0.48175q-1.02774,-0.25694 -1.92702,-0.70657q-0.89928,-0.44964 -1.47738,-1.15621q-0.57811,-0.73869 -0.57811,-1.79855q0,-1.05986 0.32117,-1.79855q0.32117,-0.77081 0.96351,-1.3168q1.38103,-1.18833 3.85404,-1.18833q1.99125,0 3.82192,0.64234q0.35329,0.12847 0.54599,0.44964q0.22482,0.28905 0.22482,0.64234q0,0.32117 -0.32117,0.64234q-0.28905,0.32117 -0.57811,0.32117q-0.28905,0 -0.70657,-0.12847q-1.25256,-0.3854 -2.76206,-0.3854q-1.5095,0 -2.28031,0.51387q-0.77081,0.51387 -0.77081,1.28468q0,0.73869 0.57811,1.09198q0.57811,0.32117 1.44526,0.57811q0.89928,0.25694 1.92702,0.48175q1.05986,0.22482 1.92702,0.67446q2.05549,1.05986 2.05549,3.24382q0,1.7022 -1.28468,2.72994q-1.34891,1.15621 -3.82192,1.15621q-2.63359,0 -4.75331,-1.18833q-0.44964,-0.32117 -0.48175,-0.77081q0,-0.48175 0.28905,-0.80292q0.32117,-0.35329 0.64234,-0.35329q0.32117,0 0.83504,0.22482q1.5095,0.67446 3.34017,0.67446z"/>
  <path stroke-width="1.5" stroke="#5bc014" id="svg_3" fill="none" d="m108.39343,30.86127c0.21652,-0.32994 0.34644,-0.71762 0.34644,-1.12593c0,-0.75887 -0.41655,-1.45587 -1.08468,-1.81468l-4.09541,-2.20649l-22.7227,12.03051c-0.3052,0.15878 -0.63514,0.23921 -0.96714,0.23921s-0.66195,-0.08042 -0.96508,-0.23921l-22.7227,-12.03051l-4.09541,2.20649c-0.67019,0.35881 -1.08675,1.05581 -1.08675,1.81468c0,0.4083 0.12991,0.79599 0.34644,1.12593l28.5235,15.10104l28.5235,-15.10104z"/>
  <path stroke-width="1.5" stroke="#5bc014" id="svg_4" fill="none" d="m107.65519,40.29349l-4.09541,-2.20649l-22.72476,12.03051c-0.30313,0.16085 -0.63308,0.23921 -0.96508,0.23921s-0.66195,-0.08042 -0.96508,-0.23921l-22.7227,-12.03051l-4.09541,2.20649c-0.67019,0.35881 -1.08675,1.05581 -1.08675,1.81468s0.41655,1.45587 1.08468,1.81468l26.8078,14.43497c0.3052,0.16497 0.64132,0.24746 0.97745,0.24746s0.67226,-0.08249 0.97745,-0.24746l26.8078,-14.43497c0.66813,-0.35881 1.08468,-1.05581 1.08468,-1.81468s-0.41655,-1.45587 -1.08468,-1.81468z"/>
  <path stroke-width="1.5" stroke="#5bc014" id="svg_5" fill="none" d="m79.86994,33.58948l28.5235,-15.10104c0.21652,-0.332 0.34644,-0.71762 0.34644,-1.12593c0,-0.75887 -0.41655,-1.45587 -1.08468,-1.81468l-26.8078,-14.43497c-0.60833,-0.32788 -1.34451,-0.32788 -1.95284,0l-26.8078,14.43497c-0.67019,0.35881 -1.08675,1.05581 -1.08675,1.81468c0,0.4083 0.12991,0.79392 0.34644,1.12593l28.5235,15.10104z"/>
 </g>
</svg>