<svg width="160" height="95" xmlns="http://www.w3.org/2000/svg" version="1.1">
 <desc>Created with Snap</desc>

 <g>
  <title>Layer 1</title>
  <path id="svg_3" fill="#f5f5f5" d="m108.52351,30.86127c0.21652,-0.32994 0.34644,-0.71762 0.34644,-1.12593c0,-0.75887 -0.41655,-1.45587 -1.08468,-1.81468l-4.09541,-2.20649l-22.7227,12.03051c-0.3052,0.15878 -0.63514,0.23921 -0.96714,0.23921s-0.66195,-0.08042 -0.96508,-0.23921l-22.7227,-12.03051l-4.09541,2.20649c-0.67019,0.35881 -1.08675,1.05581 -1.08675,1.81468c0,0.4083 0.12991,0.79599 0.34644,1.12593l28.5235,15.10104l28.5235,-15.10104z"/>
  <path id="svg_4" fill="#f5f5f5" d="m107.78527,40.29349l-4.09541,-2.20649l-22.72476,12.03051c-0.30313,0.16085 -0.63308,0.23921 -0.96508,0.23921s-0.66195,-0.08042 -0.96508,-0.23921l-22.7227,-12.03051l-4.09541,2.20649c-0.67019,0.35881 -1.08675,1.05581 -1.08675,1.81468s0.41655,1.45587 1.08468,1.81468l26.8078,14.43497c0.3052,0.16497 0.64132,0.24746 0.97745,0.24746s0.67226,-0.08249 0.97745,-0.24746l26.8078,-14.43497c0.66813,-0.35881 1.08468,-1.05581 1.08468,-1.81468s-0.41655,-1.45587 -1.08468,-1.81468z"/>
  <path id="svg_5" fill="#f5f5f5" d="m80.00002,33.58948l28.5235,-15.10104c0.21652,-0.332 0.34644,-0.71762 0.34644,-1.12593c0,-0.75887 -0.41655,-1.45587 -1.08468,-1.81468l-26.8078,-14.43497c-0.60833,-0.32788 -1.34451,-0.32788 -1.95284,0l-26.8078,14.43497c-0.67019,0.35881 -1.08675,1.05581 -1.08675,1.81468c0,0.4083 0.12991,0.79392 0.34644,1.12593l28.5235,15.10104z"/>
  <desc fill="#5bc014">Created with Snap</desc>

  <g stroke="null" id="svg_6">
   <g stroke="null" id="svg_7" transform="matrix(0.032117 0 0 -0.032117 -80.3455 537.092)">
    <path id="svg_8" fill="#5bc014" d="m2980.54466,14565.05784q15,0 26,-11q12,-11 12,-27l0,-324q0,-107 -77,-168q-66,-54 -159,-54q-94,0 -159,54q-76,62 -76,168l0,324q0,15 11,26q11,12 26,12q15,0 26,-11q12,-11 12,-27l0,-326q0,-73 50,-114q46,-38 110,-38q65,0 111,38q50,42 50,114l0,326q0,15 11,26q11,12 26,12zm386,-219q-72,0 -135,-79l0,-245q0,-15 -11,-26q-11,-11 -26,-11q-15,0 -26,11q-11,11 -11,26l0,351q0,16 10,27q11,11 27,11q15,0 26,-11q11,-10 11,-27l0,-34q33,34 57,49q46,27 88,27q43,0 70,-13q27,-12 46,-35q38,-45 38,-112l0,-233q0,-15 -11,-26q-11,-11 -26,-11q-15,0 -26,11q-11,11 -11,26l0,225q0,46 -21,72q-21,27 -69,27zm602,-324l0,21q-61,-62 -140,-62q-78,0 -136,55q-62,62 -63,162q0,98 63,161q57,57 136,56q79,0 140,-62l0,201q0,16 10,26q11,11 27,11q16,0 26,-11q11,-10 11,-26l0,-532q0,-15 -11,-26q-10,-11 -26,-11q-16,0 -27,11q-10,11 -10,26zm0,90l0,172q-56,62 -130,61q-94,0 -123,-83q-10,-28 -11,-64q0,-70 38,-111q35,-37 96,-36q74,0 130,61zm253,59q7,-55 42,-88q36,-32 98,-32q63,0 107,20q14,7 25,7q11,1 20,-8q10,-9 10,-20q0,-22 -18,-31q-17,-9 -31,-16q-14,-7 -30,-12q-37,-10 -86,-10q-101,0 -157,56q-55,57 -55,161q0,90 47,150q53,67 149,67q92,0 145,-62q50,-58 50,-145q0,-15 -11,-26q-10,-11 -26,-11l-279,0zm121,181q-73,0 -106,-65q-12,-23 -15,-55l242,0q-3,58 -43,92q-32,28 -78,28zm369,21l0,-35q58,77 129,77l4,0q15,0 25,-11q11,-10 11,-26q0,-16 -11,-26q-11,-9 -27,-9l-4,0q-41,0 -73,-20q-32,-20 -54,-52l0,-249q0,-15 -11,-26q-11,-11 -26,-11q-15,0 -26,11q-11,11 -11,26l0,351q0,15 10,26q11,12 27,12q15,0 26,-11q11,-11 11,-27zm555,-20l0,20q0,15 10,26q11,12 26,12q15,0 26,-11q12,-11 12,-27l0,-366q0,-104 -50,-160q-50,-55 -142,-55q-98,0 -176,43q-14,9 -14,25q0,16 9,26q10,11 20,11q10,0 18,-3q62,-31 135,-31q126,0 126,133l0,55q-58,-62 -140,-62q-78,0 -134,53q-65,60 -65,160q0,101 65,161q56,53 136,52q80,0 138,-62zm0,-235l0,169q-23,24 -53,42q-29,18 -65,18q-36,0 -62,-9q-25,-9 -44,-27q-40,-38 -40,-109q0,-106 84,-136q26,-9 62,-9q60,0 118,61zm218,268q69,30 143,29q83,0 129,-51q41,-44 42,-110l0,-232q0,-15 -12,-26q-11,-11 -27,-11q-15,0 -26,11q-11,11 -11,26l0,21q-22,-23 -59,-43q-37,-19 -94,-19q-57,0 -95,33q-39,34 -39,89q0,61 46,96q50,38 142,37l99,0l0,7q0,55 -27,78q-26,23 -82,23q-47,0 -109,-19q-6,-2 -15,-2q-8,0 -17,8q-9,9 -10,27q0,19 22,28zm26,-274q0,-66 87,-65q38,0 71,18q34,19 54,42l0,69l-88,0q-58,0 -91,-15q-33,-14 -33,-49zm487,261l0,-34q50,75 139,76q44,0 81,-26q30,-21 45,-58q23,36 45,50q46,34 105,34q66,0 104,-51q33,-43 33,-106l0,-236q0,-15 -11,-26q-10,-11 -26,-11q-15,0 -26,11q-11,11 -11,26l0,221q0,52 -19,77q-18,26 -64,26q-72,0 -119,-79l0,-245q0,-15 -11,-26q-10,-11 -26,-11q-15,0 -26,11q-11,11 -11,26l0,221q0,52 -19,77q-18,26 -64,26q-72,0 -119,-79l0,-245q0,-15 -11,-26q-11,-11 -26,-11q-15,0 -26,11q-11,11 -11,26l0,351q0,15 10,26q11,12 27,12q15,0 26,-11q11,-11 11,-27zm728,-202q7,-55 42,-88q36,-32 98,-32q63,0 107,20q14,7 25,7q11,1 20,-8q10,-9 10,-20q0,-22 -18,-31q-17,-9 -31,-16q-14,-7 -30,-12q-37,-10 -86,-10q-101,0 -157,56q-55,57 -55,161q0,90 47,150q53,67 149,67q92,0 145,-62q50,-58 50,-145q0,-15 -11,-26q-10,-11 -26,-11l-279,0zm121,181q-73,0 -106,-65q-12,-23 -15,-55l242,0q-3,58 -43,92q-32,28 -78,28zm428,-302q91,0 90,57q0,18 -18,28q-18,10 -45,17q-27,7 -59,15q-32,8 -60,22q-28,14 -46,36q-18,23 -18,56q0,33 10,56q10,24 30,41q43,37 120,37q62,0 119,-20q11,-4 17,-14q7,-9 7,-20q0,-10 -10,-20q-9,-10 -18,-10q-9,0 -22,4q-39,12 -86,12q-47,0 -71,-16q-24,-16 -24,-40q0,-23 18,-34q18,-10 45,-18q28,-8 60,-15q33,-7 60,-21q64,-33 64,-101q0,-53 -40,-85q-42,-36 -119,-36q-82,0 -148,37q-14,10 -15,24q0,15 9,25q10,11 20,11q10,0 26,-7q47,-21 104,-21z"/>
   </g>
  </g>
 </g>
</svg>