<svg width="29" height="29" viewBox="0 0 29 29" fill="none" xmlns="http://www.w3.org/2000/svg">
<path d="M0 14.822C0 22.5845 6.29195 28.876 14.0565 28.876C21.8175 28.876 28.1109 22.5845 28.1109 14.822C28.1109 7.05898 21.8175 0.767533 14.0565 0.767533C6.29195 0.767533 0 7.05898 0 14.822Z" fill="url(#paint0_linear)"/>
<mask id="mask0" mask-type="alpha" maskUnits="userSpaceOnUse" x="0" y="0" width="29" height="29">
<path d="M0 14.822C0 22.5845 6.29195 28.876 14.0565 28.876C21.8175 28.876 28.111 22.5845 28.111 14.822C28.111 7.05898 21.8175 0.767533 14.0565 0.767533C6.29195 0.767533 0 7.05898 0 14.822Z" fill="url(#paint1_linear)"/>
</mask>
<g mask="url(#mask0)">
<path d="M28.1369 23.8546H0.0279541V28.8726H28.1369V23.8546Z" fill="black"/>
<path d="M28.1089 11.825H0V17.8408H28.1089V11.825ZM28.1089 5.81064H0V0.769674H28.1089V5.81064Z" fill="url(#paint2_radial)"/>
</g>
<defs>
<linearGradient id="paint0_linear" x1="0.000500195" y1="14.8315" x2="28.109" y2="14.8315" gradientUnits="userSpaceOnUse">
<stop stop-color="#FAA61A"/>
<stop offset="1" stop-color="#FFE100"/>
</linearGradient>
<linearGradient id="paint1_linear" x1="0.000500195" y1="14.8315" x2="28.109" y2="14.8315" gradientUnits="userSpaceOnUse">
<stop stop-color="#FAA61A"/>
<stop offset="1" stop-color="#FFE100"/>
</linearGradient>
<radialGradient id="paint2_radial" cx="0" cy="0" r="1" gradientUnits="userSpaceOnUse" gradientTransform="translate(17.3548 10.4219) scale(8.52232)">
<stop stop-color="#363738"/>
<stop offset="1"/>
</radialGradient>
</defs>
</svg>
