<svg xmlns="http://www.w3.org/2000/svg" xmlns:xlink="http://www.w3.org/1999/xlink" width="128" height="128" viewBox="0 0 128 128"><defs><clipPath id="a"><circle cx="64" cy="64" r="64" transform="translate(1711 979)" fill="#fff" stroke="#707070" stroke-width="1"/></clipPath><radialGradient id="c" cx="0.5" cy="0.5" r="0.5" gradientUnits="objectBoundingBox"><stop offset="0" stop-color="#fff0d5"/><stop offset="0.841" stop-color="#fffdec"/><stop offset="1" stop-color="#ffa800"/></radialGradient><filter id="d" x="34" y="-13" width="60" height="60" filterUnits="userSpaceOnUse"><feOffset input="SourceAlpha"/><feGaussianBlur stdDeviation="8" result="e"/><feFlood flood-color="#f6af27"/><feComposite operator="in" in2="e"/><feComposite in="SourceGraphic"/></filter><filter id="g" x="34" y="85" width="60" height="60" filterUnits="userSpaceOnUse"><feOffset input="SourceAlpha"/><feGaussianBlur stdDeviation="8" result="h"/><feFlood flood-color="#f6af27"/><feComposite operator="in" in2="h"/><feComposite in="SourceGraphic"/></filter><filter id="j" x="74.239" y="9.304" width="64.392" height="64.392" filterUnits="userSpaceOnUse"><feOffset input="SourceAlpha"/><feGaussianBlur stdDeviation="8" result="k"/><feFlood flood-color="#f6af27"/><feComposite operator="in" in2="k"/><feComposite in="SourceGraphic"/></filter><filter id="m" x="-10.632" y="58.304" width="64.392" height="64.392" filterUnits="userSpaceOnUse"><feOffset input="SourceAlpha"/><feGaussianBlur stdDeviation="8" result="n"/><feFlood flood-color="#f6af27"/><feComposite operator="in" in2="n"/><feComposite in="SourceGraphic"/></filter><filter id="p" x="74.238" y="58.304" width="64.392" height="64.392" filterUnits="userSpaceOnUse"><feOffset input="SourceAlpha"/><feGaussianBlur stdDeviation="8" result="q"/><feFlood flood-color="#f6af27"/><feComposite operator="in" in2="q"/><feComposite in="SourceGraphic"/></filter><filter id="s" x="-10.632" y="9.304" width="64.392" height="64.392" filterUnits="userSpaceOnUse"><feOffset input="SourceAlpha"/><feGaussianBlur stdDeviation="8" result="t"/><feFlood flood-color="#f6af27"/><feComposite operator="in" in2="t"/><feComposite in="SourceGraphic"/></filter></defs><g transform="translate(-1711 -979)"><g clip-path="url(#a)"><g transform="translate(0 0)"><g clip-path="url(#a)"><path d="M54.5,0,109,94H0Z" transform="translate(1721 1043)" fill="#fff"/><path d="M54.5,0,109,94H0Z" transform="translate(1830 1043) rotate(180)" fill="#f6f7fc"/><path d="M54.5,0,109,94H0Z" transform="translate(1748.25 995.802) rotate(60)" fill="#f6f7fc"/><path d="M54.5,0,109,94H0Z" transform="translate(1802.75 1090.198) rotate(-120)" fill="#fff"/><path d="M54.5,0,109,94H0Z" transform="translate(1802.75 995.802) rotate(120)" fill="#fff"/><path d="M54.5,0,109,94H0Z" transform="translate(1748.25 1090.198) rotate(-60)" fill="#f6f7fc"/><g transform="translate(1711 979)" fill="none" stroke="#c7cef9" stroke-width="4"><circle cx="64" cy="64" r="64" stroke="none"/><circle cx="64" cy="64" r="62" fill="none"/></g><g transform="translate(1711 979)" fill="none" stroke="#8a9afb" stroke-width="2"><circle cx="64" cy="64" r="64" stroke="none"/><circle cx="64" cy="64" r="63" fill="none"/></g></g><g transform="matrix(1, 0, 0, 1, 1711, 979)" filter="url(#d)"><circle cx="6" cy="6" r="6" transform="translate(58 11)" fill="url(#c)"/></g><g transform="matrix(1, 0, 0, 1, 1711, 979)" filter="url(#g)"><circle cx="6" cy="6" r="6" transform="translate(58 109)" fill="url(#c)"/></g><g transform="matrix(1, 0, 0, 1, 1711, 979)" filter="url(#j)"><circle cx="6" cy="6" r="6" transform="translate(108.63 33.3) rotate(60)" fill="url(#c)"/></g><g transform="matrix(1, 0, 0, 1, 1711, 979)" filter="url(#m)"><circle cx="6" cy="6" r="6" transform="translate(23.76 82.3) rotate(60)" fill="url(#c)"/></g><g transform="matrix(1, 0, 0, 1, 1711, 979)" filter="url(#p)"><circle cx="6" cy="6" r="6" transform="translate(114.63 88.3) rotate(120)" fill="url(#c)"/></g><g transform="matrix(1, 0, 0, 1, 1711, 979)" filter="url(#s)"><circle cx="6" cy="6" r="6" transform="translate(29.76 39.3) rotate(120)" fill="url(#c)"/></g></g></g></g></svg>